<mxfile host="Electron" agent="Mozilla/5.0 (Macintosh; Intel Mac OS X 10_15_7) AppleWebKit/537.36 (KHTML, like Gecko) draw.io/26.0.16 Chrome/132.0.6834.196 Electron/34.2.0 Safari/537.36" version="26.0.16">
  <diagram name="Page-1" id="2YBvvXClWsGukQMizWep">
    <mxGraphModel dx="1172" dy="1317" grid="1" gridSize="10" guides="1" tooltips="1" connect="1" arrows="1" fold="1" page="1" pageScale="1" pageWidth="850" pageHeight="1100" math="0" shadow="0">
      <root>
        <mxCell id="0" />
        <mxCell id="1" parent="0" />
        <mxCell id="88q5nTp_Nvz3oITgZhuR-10" value=":ListGUI" style="shape=umlLifeline;perimeter=lifelinePerimeter;whiteSpace=wrap;html=1;container=0;dropTarget=0;collapsible=0;recursiveResize=0;outlineConnect=0;portConstraint=eastwest;newEdgeStyle={&quot;edgeStyle&quot;:&quot;elbowEdgeStyle&quot;,&quot;elbow&quot;:&quot;vertical&quot;,&quot;curved&quot;:0,&quot;rounded&quot;:0};size=40;" parent="1" vertex="1">
          <mxGeometry x="350" y="400" width="100" height="650" as="geometry" />
        </mxCell>
        <mxCell id="88q5nTp_Nvz3oITgZhuR-30" value="Event" style="shape=umlLifeline;perimeter=lifelinePerimeter;whiteSpace=wrap;html=1;container=0;dropTarget=0;collapsible=0;recursiveResize=0;outlineConnect=0;portConstraint=eastwest;newEdgeStyle={&quot;edgeStyle&quot;:&quot;elbowEdgeStyle&quot;,&quot;elbow&quot;:&quot;vertical&quot;,&quot;curved&quot;:0,&quot;rounded&quot;:0};" parent="1" vertex="1">
          <mxGeometry x="1470.67" y="121" width="100" height="1550" as="geometry" />
        </mxCell>
        <mxCell id="88q5nTp_Nvz3oITgZhuR-14" value=":DBProxy" style="shape=umlLifeline;perimeter=lifelinePerimeter;whiteSpace=wrap;html=1;container=0;dropTarget=0;collapsible=0;recursiveResize=0;outlineConnect=0;portConstraint=eastwest;newEdgeStyle={&quot;edgeStyle&quot;:&quot;elbowEdgeStyle&quot;,&quot;elbow&quot;:&quot;vertical&quot;,&quot;curved&quot;:0,&quot;rounded&quot;:0};" parent="1" vertex="1">
          <mxGeometry x="1300.67" y="121" width="100" height="1720" as="geometry" />
        </mxCell>
        <mxCell id="88q5nTp_Nvz3oITgZhuR-7" value=":Recommendation" style="shape=umlLifeline;perimeter=lifelinePerimeter;whiteSpace=wrap;html=1;container=0;dropTarget=0;collapsible=0;recursiveResize=0;outlineConnect=0;portConstraint=eastwest;newEdgeStyle={&quot;edgeStyle&quot;:&quot;elbowEdgeStyle&quot;,&quot;elbow&quot;:&quot;vertical&quot;,&quot;curved&quot;:0,&quot;rounded&quot;:0};" parent="1" vertex="1">
          <mxGeometry x="1045.84" y="119" width="131.67" height="1731" as="geometry" />
        </mxCell>
        <mxCell id="SBYqs1EQWeDO3xsNnUc4-11" value="" style="html=1;verticalAlign=bottom;startArrow=none;endArrow=block;edgeStyle=elbowEdgeStyle;elbow=vertical;curved=0;rounded=0;startFill=0;" parent="1" source="88q5nTp_Nvz3oITgZhuR-109" edge="1">
          <mxGeometry x="-0.4276" relative="1" as="geometry">
            <mxPoint x="186.79090909090922" y="1200" as="sourcePoint" />
            <mxPoint x="843.2" y="1200" as="targetPoint" />
            <mxPoint as="offset" />
            <Array as="points">
              <mxPoint x="425.2" y="1200" />
            </Array>
          </mxGeometry>
        </mxCell>
        <mxCell id="SBYqs1EQWeDO3xsNnUc4-12" value="viewEventMap()" style="edgeLabel;html=1;align=center;verticalAlign=middle;resizable=0;points=[];" parent="SBYqs1EQWeDO3xsNnUc4-11" vertex="1" connectable="0">
          <mxGeometry x="0.2492" y="1" relative="1" as="geometry">
            <mxPoint x="-29" as="offset" />
          </mxGeometry>
        </mxCell>
        <mxCell id="aM9ryv3xv72pqoxQDRHE-5" value=":EventController" style="shape=umlLifeline;perimeter=lifelinePerimeter;whiteSpace=wrap;html=1;container=0;dropTarget=0;collapsible=0;recursiveResize=0;outlineConnect=0;portConstraint=eastwest;newEdgeStyle={&quot;edgeStyle&quot;:&quot;elbowEdgeStyle&quot;,&quot;elbow&quot;:&quot;vertical&quot;,&quot;curved&quot;:0,&quot;rounded&quot;:0};size=40;" parent="1" vertex="1">
          <mxGeometry x="791.01" y="119" width="119.33" height="1709" as="geometry" />
        </mxCell>
        <mxCell id="SBYqs1EQWeDO3xsNnUc4-13" value="" style="html=1;points=[];perimeter=orthogonalPerimeter;outlineConnect=0;targetShapes=umlLifeline;portConstraint=eastwest;newEdgeStyle={&quot;edgeStyle&quot;:&quot;elbowEdgeStyle&quot;,&quot;elbow&quot;:&quot;vertical&quot;,&quot;curved&quot;:0,&quot;rounded&quot;:0};" parent="aM9ryv3xv72pqoxQDRHE-5" vertex="1">
          <mxGeometry x="54.99" y="1060" width="10" height="260" as="geometry" />
        </mxCell>
        <mxCell id="SBYqs1EQWeDO3xsNnUc4-14" value="[Event]" style="html=1;verticalAlign=bottom;endArrow=open;dashed=1;endSize=8;edgeStyle=elbowEdgeStyle;elbow=vertical;curved=0;rounded=0;" parent="aM9ryv3xv72pqoxQDRHE-5" edge="1">
          <mxGeometry relative="1" as="geometry">
            <mxPoint x="64.99000000000001" y="1270" as="targetPoint" />
            <Array as="points">
              <mxPoint x="244.99" y="1270" />
            </Array>
            <mxPoint x="314.99" y="1270" as="sourcePoint" />
          </mxGeometry>
        </mxCell>
        <mxCell id="SBYqs1EQWeDO3xsNnUc4-15" value="getRecommendedEvents()" style="html=1;verticalAlign=bottom;endArrow=block;edgeStyle=elbowEdgeStyle;elbow=vertical;curved=0;rounded=0;" parent="aM9ryv3xv72pqoxQDRHE-5" target="SBYqs1EQWeDO3xsNnUc4-16" edge="1">
          <mxGeometry relative="1" as="geometry">
            <mxPoint x="64.99000000000001" y="1170" as="sourcePoint" />
            <Array as="points">
              <mxPoint x="220.99" y="1169.5" />
            </Array>
            <mxPoint x="309.99" y="1170" as="targetPoint" />
          </mxGeometry>
        </mxCell>
        <mxCell id="SBYqs1EQWeDO3xsNnUc4-17" value="getEventFeed(&lt;span style=&quot;font-size: 12px; text-align: left; text-wrap-mode: wrap; background-color: rgb(251, 251, 251);&quot;&gt;accountPreferences&lt;/span&gt;)" style="html=1;verticalAlign=bottom;endArrow=block;edgeStyle=elbowEdgeStyle;elbow=vertical;curved=0;rounded=0;" parent="aM9ryv3xv72pqoxQDRHE-5" target="SBYqs1EQWeDO3xsNnUc4-19" edge="1">
          <mxGeometry relative="1" as="geometry">
            <mxPoint x="324.99" y="1190" as="sourcePoint" />
            <Array as="points">
              <mxPoint x="439.99" y="1190" />
            </Array>
            <mxPoint x="549.99" y="1190" as="targetPoint" />
            <mxPoint as="offset" />
          </mxGeometry>
        </mxCell>
        <mxCell id="SBYqs1EQWeDO3xsNnUc4-18" value="[Event]" style="html=1;verticalAlign=bottom;endArrow=open;dashed=1;endSize=8;edgeStyle=elbowEdgeStyle;elbow=vertical;curved=0;rounded=0;" parent="aM9ryv3xv72pqoxQDRHE-5" edge="1">
          <mxGeometry relative="1" as="geometry">
            <mxPoint x="324.99" y="1260" as="targetPoint" />
            <Array as="points">
              <mxPoint x="474.99" y="1260" />
            </Array>
            <mxPoint x="554.99" y="1260" as="sourcePoint" />
          </mxGeometry>
        </mxCell>
        <mxCell id="SBYqs1EQWeDO3xsNnUc4-19" value="" style="html=1;points=[];perimeter=orthogonalPerimeter;outlineConnect=0;targetShapes=umlLifeline;portConstraint=eastwest;newEdgeStyle={&quot;edgeStyle&quot;:&quot;elbowEdgeStyle&quot;,&quot;elbow&quot;:&quot;vertical&quot;,&quot;curved&quot;:0,&quot;rounded&quot;:0};" parent="aM9ryv3xv72pqoxQDRHE-5" vertex="1">
          <mxGeometry x="554.99" y="1180" width="10" height="100" as="geometry" />
        </mxCell>
        <mxCell id="SBYqs1EQWeDO3xsNnUc4-20" value="create()" style="html=1;verticalAlign=bottom;endArrow=block;edgeStyle=elbowEdgeStyle;elbow=vertical;curved=0;rounded=0;" parent="aM9ryv3xv72pqoxQDRHE-5" target="SBYqs1EQWeDO3xsNnUc4-22" edge="1">
          <mxGeometry x="-0.1086" relative="1" as="geometry">
            <mxPoint x="565.99" y="1200" as="sourcePoint" />
            <Array as="points" />
            <mxPoint x="679.99" y="1200" as="targetPoint" />
            <mxPoint as="offset" />
          </mxGeometry>
        </mxCell>
        <mxCell id="SBYqs1EQWeDO3xsNnUc4-21" value="Event" style="html=1;verticalAlign=bottom;endArrow=open;dashed=1;endSize=8;edgeStyle=elbowEdgeStyle;elbow=horizontal;curved=0;rounded=0;" parent="aM9ryv3xv72pqoxQDRHE-5" target="SBYqs1EQWeDO3xsNnUc4-19" edge="1">
          <mxGeometry relative="1" as="geometry">
            <mxPoint x="569.99" y="1240" as="targetPoint" />
            <Array as="points">
              <mxPoint x="649.99" y="1240" />
            </Array>
            <mxPoint x="729.99" y="1240" as="sourcePoint" />
          </mxGeometry>
        </mxCell>
        <mxCell id="SBYqs1EQWeDO3xsNnUc4-22" value="" style="html=1;points=[];perimeter=orthogonalPerimeter;outlineConnect=0;targetShapes=umlLifeline;portConstraint=eastwest;newEdgeStyle={&quot;edgeStyle&quot;:&quot;elbowEdgeStyle&quot;,&quot;elbow&quot;:&quot;vertical&quot;,&quot;curved&quot;:0,&quot;rounded&quot;:0};" parent="aM9ryv3xv72pqoxQDRHE-5" vertex="1">
          <mxGeometry x="724.99" y="1190" width="10" height="80" as="geometry" />
        </mxCell>
        <mxCell id="SBYqs1EQWeDO3xsNnUc4-16" value="&lt;span style=&quot;color: rgba(0, 0, 0, 0); font-family: monospace; font-size: 0px; text-align: start;&quot;&gt;%3CmxGraphModel%3E%3Croot%3E%3CmxCell%20id%3D%220%22%2F%3E%3CmxCell%20id%3D%221%22%20parent%3D%220%22%2F%3E%3CmxCell%20id%3D%222%22%20value%3D%22%3ARecommendationController%22%20style%3D%22shape%3DumlLifeline%3Bperimeter%3DlifelinePerimeter%3BwhiteSpace%3Dwrap%3Bhtml%3D1%3Bcontainer%3D0%3BdropTarget%3D0%3Bcollapsible%3D0%3BrecursiveResize%3D0%3BoutlineConnect%3D0%3BportConstraint%3Deastwest%3BnewEdgeStyle%3D%7B%26quot%3BedgeStyle%26quot%3B%3A%26quot%3BelbowEdgeStyle%26quot%3B%2C%26quot%3Belbow%26quot%3B%3A%26quot%3Bvertical%26quot%3B%2C%26quot%3Bcurved%26quot%3B%3A0%2C%26quot%3Brounded%26quot%3B%3A0%7D%3Bsize%3D40%3B%22%20vertex%3D%221%22%20parent%3D%221%22%3E%3CmxGeometry%20x%3D%22550%22%20y%3D%22110%22%20width%3D%22160%22%20height%3D%22320%22%20as%3D%22geometry%22%2F%3E%3C%2FmxCell%3E%3C%2Froot%3E%3C%2FmxGraphModel%3E&lt;/span&gt;" style="html=1;points=[];perimeter=orthogonalPerimeter;outlineConnect=0;targetShapes=umlLifeline;portConstraint=eastwest;newEdgeStyle={&quot;edgeStyle&quot;:&quot;elbowEdgeStyle&quot;,&quot;elbow&quot;:&quot;vertical&quot;,&quot;curved&quot;:0,&quot;rounded&quot;:0};" parent="aM9ryv3xv72pqoxQDRHE-5" vertex="1">
          <mxGeometry x="315.99" y="1149" width="10" height="130" as="geometry" />
        </mxCell>
        <mxCell id="88q5nTp_Nvz3oITgZhuR-6" value="Alt" style="shape=umlFrame;whiteSpace=wrap;html=1;pointerEvents=0;recursiveResize=0;container=0;collapsible=0;width=80;height=30;" parent="1" vertex="1">
          <mxGeometry x="40" y="210" width="1620" height="1850" as="geometry" />
        </mxCell>
        <mxCell id="aM9ryv3xv72pqoxQDRHE-3" value="viewEventFeed()" style="html=1;verticalAlign=bottom;startArrow=oval;endArrow=block;startSize=8;edgeStyle=elbowEdgeStyle;elbow=vertical;curved=0;rounded=0;" parent="1" target="aM9ryv3xv72pqoxQDRHE-6" edge="1">
          <mxGeometry x="-0.2511" relative="1" as="geometry">
            <mxPoint x="190" y="280.24" as="sourcePoint" />
            <mxPoint x="330" y="280" as="targetPoint" />
            <mxPoint as="offset" />
          </mxGeometry>
        </mxCell>
        <mxCell id="88q5nTp_Nvz3oITgZhuR-16" value="getEventFeed(&lt;span style=&quot;font-size: 12px; text-align: left; text-wrap-mode: wrap; background-color: rgb(251, 251, 251);&quot;&gt;accountPreferences&lt;/span&gt;)" style="html=1;verticalAlign=bottom;endArrow=block;edgeStyle=elbowEdgeStyle;elbow=vertical;curved=0;rounded=0;" parent="1" target="88q5nTp_Nvz3oITgZhuR-15" edge="1">
          <mxGeometry relative="1" as="geometry">
            <mxPoint x="1115.67" y="331" as="sourcePoint" />
            <Array as="points">
              <mxPoint x="1230.67" y="331" />
            </Array>
            <mxPoint x="1340.67" y="331" as="targetPoint" />
            <mxPoint as="offset" />
          </mxGeometry>
        </mxCell>
        <mxCell id="88q5nTp_Nvz3oITgZhuR-17" value="[Event]" style="html=1;verticalAlign=bottom;endArrow=open;dashed=1;endSize=8;edgeStyle=elbowEdgeStyle;elbow=vertical;curved=0;rounded=0;" parent="1" edge="1">
          <mxGeometry x="-0.0023" relative="1" as="geometry">
            <mxPoint x="1115.67" y="401" as="targetPoint" />
            <Array as="points">
              <mxPoint x="1265.67" y="401" />
            </Array>
            <mxPoint x="1345.67" y="401" as="sourcePoint" />
            <mxPoint as="offset" />
          </mxGeometry>
        </mxCell>
        <mxCell id="88q5nTp_Nvz3oITgZhuR-18" value="[Event]" style="html=1;verticalAlign=bottom;endArrow=open;dashed=1;endSize=8;edgeStyle=elbowEdgeStyle;elbow=vertical;curved=0;rounded=0;" parent="1" edge="1">
          <mxGeometry relative="1" as="geometry">
            <mxPoint x="855.67" y="411" as="targetPoint" />
            <Array as="points">
              <mxPoint x="1035.67" y="411" />
            </Array>
            <mxPoint x="1105.67" y="411" as="sourcePoint" />
          </mxGeometry>
        </mxCell>
        <mxCell id="88q5nTp_Nvz3oITgZhuR-29" value="create()" style="html=1;verticalAlign=bottom;endArrow=block;edgeStyle=elbowEdgeStyle;elbow=vertical;curved=0;rounded=0;" parent="1" target="88q5nTp_Nvz3oITgZhuR-31" edge="1">
          <mxGeometry x="-0.1086" relative="1" as="geometry">
            <mxPoint x="1356.67" y="341" as="sourcePoint" />
            <Array as="points" />
            <mxPoint x="1470.67" y="341" as="targetPoint" />
            <mxPoint as="offset" />
          </mxGeometry>
        </mxCell>
        <mxCell id="88q5nTp_Nvz3oITgZhuR-26" value="&lt;span style=&quot;color: rgba(0, 0, 0, 0); font-family: monospace; font-size: 0px; text-align: start; background-color: rgb(251, 251, 251);&quot;&gt;%3CmxGraphModel%3E%3Croot%3E%3CmxCell%20id%3D%220%22%2F%3E%3CmxCell%20id%3D%221%22%20parent%3D%220%22%2F%3E%3CmxCell%20id%3D%222%22%20value%3D%22eventObjectList%22%20style%3D%22html%3D1%3BverticalAlign%3Dbottom%3BendArrow%3Dopen%3Bdashed%3D1%3BendSize%3D8%3BedgeStyle%3DelbowEdgeStyle%3Belbow%3Dvertical%3Bcurved%3D0%3Brounded%3D0%3B%22%20edge%3D%221%22%20parent%3D%221%22%3E%3CmxGeometry%20relative%3D%221%22%20as%3D%22geometry%22%3E%3CmxPoint%20x%3D%22636%22%20y%3D%22380%22%20as%3D%22targetPoint%22%2F%3E%3CArray%20as%3D%22points%22%3E%3CmxPoint%20x%3D%22816%22%20y%3D%22380%22%2F%3E%3C%2FArray%3E%3CmxPoint%20x%3D%22886%22%20y%3D%22380%22%20as%3D%22sourcePoint%22%2F%3E%3C%2FmxGeometry%3E%3C%2FmxCell%3E%3C%2Froot%3E%3C%2FmxGraphModel%3E&lt;/span&gt;" style="html=1;verticalAlign=bottom;endArrow=open;dashed=1;endSize=8;edgeStyle=elbowEdgeStyle;elbow=vertical;curved=0;rounded=0;" parent="1" source="88q5nTp_Nvz3oITgZhuR-10" edge="1">
          <mxGeometry x="0.0036" relative="1" as="geometry">
            <mxPoint x="400" y="440" as="targetPoint" />
            <Array as="points" />
            <mxPoint x="625" y="420" as="sourcePoint" />
            <mxPoint as="offset" />
          </mxGeometry>
        </mxCell>
        <mxCell id="88q5nTp_Nvz3oITgZhuR-28" value="[Event]" style="edgeLabel;html=1;align=center;verticalAlign=middle;resizable=0;points=[];" parent="88q5nTp_Nvz3oITgZhuR-26" vertex="1" connectable="0">
          <mxGeometry x="0.1473" y="2" relative="1" as="geometry">
            <mxPoint x="235" y="-17" as="offset" />
          </mxGeometry>
        </mxCell>
        <mxCell id="88q5nTp_Nvz3oITgZhuR-32" value="renderEvents(e)" style="html=1;verticalAlign=bottom;endArrow=block;edgeStyle=elbowEdgeStyle;elbow=vertical;curved=0;rounded=0;" parent="1" edge="1">
          <mxGeometry x="-0.1429" relative="1" as="geometry">
            <mxPoint x="405" y="620" as="sourcePoint" />
            <Array as="points">
              <mxPoint x="545" y="620" />
              <mxPoint x="591" y="620" />
            </Array>
            <mxPoint x="580" y="620" as="targetPoint" />
            <mxPoint as="offset" />
          </mxGeometry>
        </mxCell>
        <mxCell id="aM9ryv3xv72pqoxQDRHE-6" value="" style="html=1;points=[];perimeter=orthogonalPerimeter;outlineConnect=0;targetShapes=umlLifeline;portConstraint=eastwest;newEdgeStyle={&quot;edgeStyle&quot;:&quot;elbowEdgeStyle&quot;,&quot;elbow&quot;:&quot;vertical&quot;,&quot;curved&quot;:0,&quot;rounded&quot;:0};" parent="1" vertex="1">
          <mxGeometry x="845.67" y="271" width="10" height="190" as="geometry" />
        </mxCell>
        <mxCell id="88q5nTp_Nvz3oITgZhuR-9" value="getRecommendedEvents()" style="html=1;verticalAlign=bottom;endArrow=block;edgeStyle=elbowEdgeStyle;elbow=vertical;curved=0;rounded=0;" parent="1" target="88q5nTp_Nvz3oITgZhuR-8" edge="1">
          <mxGeometry relative="1" as="geometry">
            <mxPoint x="855.67" y="311" as="sourcePoint" />
            <Array as="points">
              <mxPoint x="1011.67" y="310.5" />
            </Array>
            <mxPoint x="1100.67" y="311" as="targetPoint" />
          </mxGeometry>
        </mxCell>
        <mxCell id="88q5nTp_Nvz3oITgZhuR-12" value=":EventTabGUI[]" style="shape=umlLifeline;perimeter=lifelinePerimeter;whiteSpace=wrap;html=1;container=0;dropTarget=0;collapsible=0;recursiveResize=0;outlineConnect=0;portConstraint=eastwest;newEdgeStyle={&quot;edgeStyle&quot;:&quot;elbowEdgeStyle&quot;,&quot;elbow&quot;:&quot;vertical&quot;,&quot;curved&quot;:0,&quot;rounded&quot;:0};" parent="1" vertex="1">
          <mxGeometry x="580" y="600" width="100" height="160" as="geometry" />
        </mxCell>
        <mxCell id="88q5nTp_Nvz3oITgZhuR-13" value="" style="html=1;points=[];perimeter=orthogonalPerimeter;outlineConnect=0;targetShapes=umlLifeline;portConstraint=eastwest;newEdgeStyle={&quot;edgeStyle&quot;:&quot;elbowEdgeStyle&quot;,&quot;elbow&quot;:&quot;vertical&quot;,&quot;curved&quot;:0,&quot;rounded&quot;:0};" parent="1" vertex="1">
          <mxGeometry x="625" y="640" width="10" height="50" as="geometry" />
        </mxCell>
        <mxCell id="88q5nTp_Nvz3oITgZhuR-60" value="alt&amp;nbsp;" style="shape=umlFrame;whiteSpace=wrap;html=1;pointerEvents=0;recursiveResize=0;container=0;collapsible=0;width=40;height=30;" parent="1" vertex="1">
          <mxGeometry x="280" y="530" width="470" height="380" as="geometry" />
        </mxCell>
        <mxCell id="88q5nTp_Nvz3oITgZhuR-76" value="User" style="shape=umlLifeline;perimeter=lifelinePerimeter;whiteSpace=wrap;html=1;container=1;dropTarget=0;collapsible=0;recursiveResize=0;outlineConnect=0;portConstraint=eastwest;newEdgeStyle={&quot;curved&quot;:0,&quot;rounded&quot;:0};" parent="1" vertex="1">
          <mxGeometry x="140" y="109" width="100" height="1871" as="geometry" />
        </mxCell>
        <mxCell id="88q5nTp_Nvz3oITgZhuR-89" value="" style="html=1;points=[];perimeter=orthogonalPerimeter;outlineConnect=0;targetShapes=umlLifeline;portConstraint=eastwest;newEdgeStyle={&quot;edgeStyle&quot;:&quot;elbowEdgeStyle&quot;,&quot;elbow&quot;:&quot;vertical&quot;,&quot;curved&quot;:0,&quot;rounded&quot;:0};" parent="88q5nTp_Nvz3oITgZhuR-76" vertex="1">
          <mxGeometry x="45" y="121" width="10" height="649" as="geometry" />
        </mxCell>
        <mxCell id="88q5nTp_Nvz3oITgZhuR-109" value="" style="html=1;points=[];perimeter=orthogonalPerimeter;outlineConnect=0;targetShapes=umlLifeline;portConstraint=eastwest;newEdgeStyle={&quot;edgeStyle&quot;:&quot;elbowEdgeStyle&quot;,&quot;elbow&quot;:&quot;vertical&quot;,&quot;curved&quot;:0,&quot;rounded&quot;:0};" parent="88q5nTp_Nvz3oITgZhuR-76" vertex="1">
          <mxGeometry x="45" y="1000" width="10" height="840" as="geometry" />
        </mxCell>
        <mxCell id="88q5nTp_Nvz3oITgZhuR-78" value="" style="endArrow=none;dashed=1;html=1;dashPattern=1 3;strokeWidth=2;rounded=0;exitX=0.002;exitY=0.518;exitDx=0;exitDy=0;exitPerimeter=0;entryX=0.994;entryY=0.512;entryDx=0;entryDy=0;entryPerimeter=0;" parent="1" source="88q5nTp_Nvz3oITgZhuR-60" target="88q5nTp_Nvz3oITgZhuR-60" edge="1">
          <mxGeometry width="50" height="50" relative="1" as="geometry">
            <mxPoint x="730" y="650" as="sourcePoint" />
            <mxPoint x="780" y="600" as="targetPoint" />
          </mxGeometry>
        </mxCell>
        <mxCell id="88q5nTp_Nvz3oITgZhuR-79" value="[eventList is empty]" style="text;html=1;align=center;verticalAlign=middle;resizable=0;points=[];autosize=1;strokeColor=none;fillColor=none;" parent="1" vertex="1">
          <mxGeometry x="450" y="730" width="130" height="30" as="geometry" />
        </mxCell>
        <mxCell id="88q5nTp_Nvz3oITgZhuR-80" value="&lt;span style=&quot;color: rgb(0, 0, 0); font-family: Helvetica; font-size: 12px; font-style: normal; font-variant-ligatures: normal; font-variant-caps: normal; font-weight: 400; letter-spacing: normal; orphans: 2; text-align: center; text-indent: 0px; text-transform: none; widows: 2; word-spacing: 0px; -webkit-text-stroke-width: 0px; white-space: normal; background-color: rgb(251, 251, 251); text-decoration-thickness: initial; text-decoration-style: initial; text-decoration-color: initial; display: inline !important; float: none;&quot;&gt;[eventList is not empty]&lt;/span&gt;" style="text;whiteSpace=wrap;html=1;" parent="1" vertex="1">
          <mxGeometry x="440" y="550" width="130" height="30" as="geometry" />
        </mxCell>
        <mxCell id="88q5nTp_Nvz3oITgZhuR-90" value="Event" style="html=1;verticalAlign=bottom;endArrow=open;dashed=1;endSize=8;edgeStyle=elbowEdgeStyle;elbow=horizontal;curved=0;rounded=0;" parent="1" target="88q5nTp_Nvz3oITgZhuR-15" edge="1">
          <mxGeometry relative="1" as="geometry">
            <mxPoint x="1360.67" y="381" as="targetPoint" />
            <Array as="points">
              <mxPoint x="1440.67" y="381" />
            </Array>
            <mxPoint x="1520.67" y="381" as="sourcePoint" />
          </mxGeometry>
        </mxCell>
        <mxCell id="88q5nTp_Nvz3oITgZhuR-34" value=":MapGUI" style="shape=umlLifeline;perimeter=lifelinePerimeter;whiteSpace=wrap;html=1;container=0;dropTarget=0;collapsible=0;recursiveResize=0;outlineConnect=0;portConstraint=eastwest;newEdgeStyle={&quot;edgeStyle&quot;:&quot;elbowEdgeStyle&quot;,&quot;elbow&quot;:&quot;vertical&quot;,&quot;curved&quot;:0,&quot;rounded&quot;:0};" parent="1" vertex="1">
          <mxGeometry x="600" y="1060" width="100" height="930" as="geometry" />
        </mxCell>
        <mxCell id="88q5nTp_Nvz3oITgZhuR-35" value="" style="html=1;points=[];perimeter=orthogonalPerimeter;outlineConnect=0;targetShapes=umlLifeline;portConstraint=eastwest;newEdgeStyle={&quot;edgeStyle&quot;:&quot;elbowEdgeStyle&quot;,&quot;elbow&quot;:&quot;vertical&quot;,&quot;curved&quot;:0,&quot;rounded&quot;:0};" parent="88q5nTp_Nvz3oITgZhuR-34" vertex="1">
          <mxGeometry x="45" y="180" width="10" height="710" as="geometry" />
        </mxCell>
        <mxCell id="88q5nTp_Nvz3oITgZhuR-92" value="" style="endArrow=none;dashed=1;html=1;rounded=0;exitX=0.002;exitY=0.456;exitDx=0;exitDy=0;exitPerimeter=0;entryX=1.002;entryY=0.455;entryDx=0;entryDy=0;entryPerimeter=0;" parent="1" source="88q5nTp_Nvz3oITgZhuR-6" target="88q5nTp_Nvz3oITgZhuR-6" edge="1">
          <mxGeometry width="50" height="50" relative="1" as="geometry">
            <mxPoint x="170" y="1050" as="sourcePoint" />
            <mxPoint x="1710" y="985" as="targetPoint" />
          </mxGeometry>
        </mxCell>
        <mxCell id="88q5nTp_Nvz3oITgZhuR-93" value="[ListView]" style="text;html=1;align=center;verticalAlign=middle;resizable=0;points=[];autosize=1;strokeColor=none;fillColor=none;" parent="1" vertex="1">
          <mxGeometry x="50" y="260" width="70" height="30" as="geometry" />
        </mxCell>
        <mxCell id="88q5nTp_Nvz3oITgZhuR-94" value="[Map View]" style="text;html=1;align=center;verticalAlign=middle;resizable=0;points=[];autosize=1;strokeColor=none;fillColor=none;" parent="1" vertex="1">
          <mxGeometry x="60" y="1080" width="80" height="30" as="geometry" />
        </mxCell>
        <mxCell id="88q5nTp_Nvz3oITgZhuR-8" value="&lt;span style=&quot;color: rgba(0, 0, 0, 0); font-family: monospace; font-size: 0px; text-align: start;&quot;&gt;%3CmxGraphModel%3E%3Croot%3E%3CmxCell%20id%3D%220%22%2F%3E%3CmxCell%20id%3D%221%22%20parent%3D%220%22%2F%3E%3CmxCell%20id%3D%222%22%20value%3D%22%3ARecommendationController%22%20style%3D%22shape%3DumlLifeline%3Bperimeter%3DlifelinePerimeter%3BwhiteSpace%3Dwrap%3Bhtml%3D1%3Bcontainer%3D0%3BdropTarget%3D0%3Bcollapsible%3D0%3BrecursiveResize%3D0%3BoutlineConnect%3D0%3BportConstraint%3Deastwest%3BnewEdgeStyle%3D%7B%26quot%3BedgeStyle%26quot%3B%3A%26quot%3BelbowEdgeStyle%26quot%3B%2C%26quot%3Belbow%26quot%3B%3A%26quot%3Bvertical%26quot%3B%2C%26quot%3Bcurved%26quot%3B%3A0%2C%26quot%3Brounded%26quot%3B%3A0%7D%3Bsize%3D40%3B%22%20vertex%3D%221%22%20parent%3D%221%22%3E%3CmxGeometry%20x%3D%22550%22%20y%3D%22110%22%20width%3D%22160%22%20height%3D%22320%22%20as%3D%22geometry%22%2F%3E%3C%2FmxCell%3E%3C%2Froot%3E%3C%2FmxGraphModel%3E&lt;/span&gt;" style="html=1;points=[];perimeter=orthogonalPerimeter;outlineConnect=0;targetShapes=umlLifeline;portConstraint=eastwest;newEdgeStyle={&quot;edgeStyle&quot;:&quot;elbowEdgeStyle&quot;,&quot;elbow&quot;:&quot;vertical&quot;,&quot;curved&quot;:0,&quot;rounded&quot;:0};" parent="1" vertex="1">
          <mxGeometry x="1106.67" y="290" width="10" height="130" as="geometry" />
        </mxCell>
        <mxCell id="88q5nTp_Nvz3oITgZhuR-15" value="" style="html=1;points=[];perimeter=orthogonalPerimeter;outlineConnect=0;targetShapes=umlLifeline;portConstraint=eastwest;newEdgeStyle={&quot;edgeStyle&quot;:&quot;elbowEdgeStyle&quot;,&quot;elbow&quot;:&quot;vertical&quot;,&quot;curved&quot;:0,&quot;rounded&quot;:0};" parent="1" vertex="1">
          <mxGeometry x="1345.67" y="321" width="10" height="100" as="geometry" />
        </mxCell>
        <mxCell id="88q5nTp_Nvz3oITgZhuR-31" value="" style="html=1;points=[];perimeter=orthogonalPerimeter;outlineConnect=0;targetShapes=umlLifeline;portConstraint=eastwest;newEdgeStyle={&quot;edgeStyle&quot;:&quot;elbowEdgeStyle&quot;,&quot;elbow&quot;:&quot;vertical&quot;,&quot;curved&quot;:0,&quot;rounded&quot;:0};" parent="1" vertex="1">
          <mxGeometry x="1515.67" y="331" width="10" height="80" as="geometry" />
        </mxCell>
        <mxCell id="88q5nTp_Nvz3oITgZhuR-100" value="&lt;span style=&quot;color: rgba(0, 0, 0, 0); font-family: monospace; font-size: 0px; text-align: start; background-color: rgb(251, 251, 251);&quot;&gt;%3CmxGraphModel%3E%3Croot%3E%3CmxCell%20id%3D%220%22%2F%3E%3CmxCell%20id%3D%221%22%20parent%3D%220%22%2F%3E%3CmxCell%20id%3D%222%22%20value%3D%22eventObjectList%22%20style%3D%22html%3D1%3BverticalAlign%3Dbottom%3BendArrow%3Dopen%3Bdashed%3D1%3BendSize%3D8%3BedgeStyle%3DelbowEdgeStyle%3Belbow%3Dvertical%3Bcurved%3D0%3Brounded%3D0%3B%22%20edge%3D%221%22%20parent%3D%221%22%3E%3CmxGeometry%20relative%3D%221%22%20as%3D%22geometry%22%3E%3CmxPoint%20x%3D%22636%22%20y%3D%22380%22%20as%3D%22targetPoint%22%2F%3E%3CArray%20as%3D%22points%22%3E%3CmxPoint%20x%3D%22816%22%20y%3D%22380%22%2F%3E%3C%2FArray%3E%3CmxPoint%20x%3D%22886%22%20y%3D%22380%22%20as%3D%22sourcePoint%22%2F%3E%3C%2FmxGeometry%3E%3C%2FmxCell%3E%3C%2Froot%3E%3C%2FmxGraphModel%3E&lt;/span&gt;" style="html=1;verticalAlign=bottom;endArrow=open;dashed=1;endSize=8;edgeStyle=elbowEdgeStyle;elbow=vertical;curved=0;rounded=0;" parent="1" edge="1">
          <mxGeometry x="0.0036" relative="1" as="geometry">
            <mxPoint x="655.67" y="1410.0000000000002" as="targetPoint" />
            <Array as="points">
              <mxPoint x="810.67" y="1410" />
            </Array>
            <mxPoint x="845.67" y="1410" as="sourcePoint" />
            <mxPoint as="offset" />
          </mxGeometry>
        </mxCell>
        <mxCell id="88q5nTp_Nvz3oITgZhuR-101" value="[Event]" style="edgeLabel;html=1;align=center;verticalAlign=middle;resizable=0;points=[];" parent="88q5nTp_Nvz3oITgZhuR-100" vertex="1" connectable="0">
          <mxGeometry x="0.1473" y="2" relative="1" as="geometry">
            <mxPoint x="4" y="-12" as="offset" />
          </mxGeometry>
        </mxCell>
        <mxCell id="88q5nTp_Nvz3oITgZhuR-112" value=":GoogleMapsController" style="shape=umlLifeline;perimeter=lifelinePerimeter;whiteSpace=wrap;html=1;container=0;dropTarget=0;collapsible=0;recursiveResize=0;outlineConnect=0;portConstraint=eastwest;newEdgeStyle={&quot;edgeStyle&quot;:&quot;elbowEdgeStyle&quot;,&quot;elbow&quot;:&quot;vertical&quot;,&quot;curved&quot;:0,&quot;rounded&quot;:0};" parent="1" vertex="1">
          <mxGeometry x="306.66" y="1060" width="167.34" height="920" as="geometry" />
        </mxCell>
        <mxCell id="88q5nTp_Nvz3oITgZhuR-114" value="" style="html=1;verticalAlign=bottom;endArrow=block;edgeStyle=elbowEdgeStyle;elbow=vertical;curved=0;rounded=0;" parent="1" source="88q5nTp_Nvz3oITgZhuR-35" target="88q5nTp_Nvz3oITgZhuR-113" edge="1">
          <mxGeometry relative="1" as="geometry">
            <mxPoint x="544.67" y="1328" as="sourcePoint" />
            <Array as="points">
              <mxPoint x="570" y="1330" />
              <mxPoint x="735.67" y="1328" />
            </Array>
            <mxPoint x="439.99999999999994" y="1379" as="targetPoint" />
          </mxGeometry>
        </mxCell>
        <mxCell id="88q5nTp_Nvz3oITgZhuR-115" value="initializeMap(location)" style="edgeLabel;html=1;align=center;verticalAlign=middle;resizable=0;points=[];" parent="88q5nTp_Nvz3oITgZhuR-114" vertex="1" connectable="0">
          <mxGeometry x="-0.0142" y="-1" relative="1" as="geometry">
            <mxPoint x="-1" y="-10" as="offset" />
          </mxGeometry>
        </mxCell>
        <mxCell id="88q5nTp_Nvz3oITgZhuR-113" value="" style="html=1;points=[];perimeter=orthogonalPerimeter;outlineConnect=0;targetShapes=umlLifeline;portConstraint=eastwest;newEdgeStyle={&quot;edgeStyle&quot;:&quot;elbowEdgeStyle&quot;,&quot;elbow&quot;:&quot;vertical&quot;,&quot;curved&quot;:0,&quot;rounded&quot;:0};" parent="1" vertex="1">
          <mxGeometry x="385.33" y="1310" width="10" height="640" as="geometry" />
        </mxCell>
        <mxCell id="88q5nTp_Nvz3oITgZhuR-71" value="" style="html=1;points=[[0,0,0,0,5],[0,1,0,0,-5],[1,0,0,0,5],[1,1,0,0,-5]];perimeter=orthogonalPerimeter;outlineConnect=0;targetShapes=umlLifeline;portConstraint=eastwest;newEdgeStyle={&quot;curved&quot;:0,&quot;rounded&quot;:0};" parent="1" vertex="1">
          <mxGeometry x="389.99999999999994" y="1700" width="10" height="40" as="geometry" />
        </mxCell>
        <mxCell id="88q5nTp_Nvz3oITgZhuR-72" value="refreshNearbyEvents()" style="html=1;align=left;spacingLeft=2;endArrow=block;rounded=0;edgeStyle=orthogonalEdgeStyle;curved=0;rounded=0;" parent="1" target="88q5nTp_Nvz3oITgZhuR-71" edge="1">
          <mxGeometry relative="1" as="geometry">
            <mxPoint x="394.99999999999994" y="1680" as="sourcePoint" />
            <Array as="points">
              <mxPoint x="424.99999999999994" y="1710" />
            </Array>
          </mxGeometry>
        </mxCell>
        <mxCell id="88q5nTp_Nvz3oITgZhuR-74" value="" style="html=1;points=[[0,0,0,0,5],[0,1,0,0,-5],[1,0,0,0,5],[1,1,0,0,-5]];perimeter=orthogonalPerimeter;outlineConnect=0;targetShapes=umlLifeline;portConstraint=eastwest;newEdgeStyle={&quot;curved&quot;:0,&quot;rounded&quot;:0};" parent="1" vertex="1">
          <mxGeometry x="389.99999999999994" y="1850" width="10" height="40" as="geometry" />
        </mxCell>
        <mxCell id="88q5nTp_Nvz3oITgZhuR-75" value="showEmptyListMessage()" style="html=1;align=left;spacingLeft=2;endArrow=block;rounded=0;edgeStyle=orthogonalEdgeStyle;curved=0;rounded=0;" parent="1" target="88q5nTp_Nvz3oITgZhuR-74" edge="1">
          <mxGeometry x="0.0084" relative="1" as="geometry">
            <mxPoint x="394.99999999999994" y="1830" as="sourcePoint" />
            <Array as="points">
              <mxPoint x="424.99999999999994" y="1860" />
            </Array>
            <mxPoint as="offset" />
          </mxGeometry>
        </mxCell>
        <mxCell id="88q5nTp_Nvz3oITgZhuR-85" value="alt&amp;nbsp;" style="shape=umlFrame;whiteSpace=wrap;html=1;pointerEvents=0;recursiveResize=0;container=0;collapsible=0;width=40;height=30;" parent="1" vertex="1">
          <mxGeometry x="220" y="1650" width="370" height="270" as="geometry" />
        </mxCell>
        <mxCell id="88q5nTp_Nvz3oITgZhuR-86" value="" style="endArrow=none;dashed=1;html=1;dashPattern=1 3;strokeWidth=2;rounded=0;exitX=0.002;exitY=0.518;exitDx=0;exitDy=0;exitPerimeter=0;" parent="1" edge="1">
          <mxGeometry width="50" height="50" relative="1" as="geometry">
            <mxPoint x="220" y="1792" as="sourcePoint" />
            <mxPoint x="590" y="1790" as="targetPoint" />
          </mxGeometry>
        </mxCell>
        <mxCell id="88q5nTp_Nvz3oITgZhuR-87" value="[eventList is empty]" style="text;html=1;align=center;verticalAlign=middle;resizable=0;points=[];autosize=1;strokeColor=none;fillColor=none;" parent="1" vertex="1">
          <mxGeometry x="220" y="1825" width="130" height="30" as="geometry" />
        </mxCell>
        <mxCell id="88q5nTp_Nvz3oITgZhuR-88" value="&lt;span style=&quot;color: rgb(0, 0, 0); font-family: Helvetica; font-size: 12px; font-style: normal; font-variant-ligatures: normal; font-variant-caps: normal; font-weight: 400; letter-spacing: normal; orphans: 2; text-align: center; text-indent: 0px; text-transform: none; widows: 2; word-spacing: 0px; -webkit-text-stroke-width: 0px; white-space: normal; background-color: rgb(251, 251, 251); text-decoration-thickness: initial; text-decoration-style: initial; text-decoration-color: initial; display: inline !important; float: none;&quot;&gt;[eventList is not empty]&lt;/span&gt;" style="text;whiteSpace=wrap;html=1;" parent="1" vertex="1">
          <mxGeometry x="240" y="1690" width="130" height="30" as="geometry" />
        </mxCell>
        <mxCell id="88q5nTp_Nvz3oITgZhuR-11" value="" style="html=1;points=[];perimeter=orthogonalPerimeter;outlineConnect=0;targetShapes=umlLifeline;portConstraint=eastwest;newEdgeStyle={&quot;edgeStyle&quot;:&quot;elbowEdgeStyle&quot;,&quot;elbow&quot;:&quot;vertical&quot;,&quot;curved&quot;:0,&quot;rounded&quot;:0};" parent="1" vertex="1">
          <mxGeometry x="395" y="550" width="10" height="330" as="geometry" />
        </mxCell>
        <mxCell id="88q5nTp_Nvz3oITgZhuR-67" value="" style="html=1;points=[[0,0,0,0,5],[0,1,0,0,-5],[1,0,0,0,5],[1,1,0,0,-5]];perimeter=orthogonalPerimeter;outlineConnect=0;targetShapes=umlLifeline;portConstraint=eastwest;newEdgeStyle={&quot;curved&quot;:0,&quot;rounded&quot;:0};" parent="1" vertex="1">
          <mxGeometry x="400" y="824.5" width="10" height="40" as="geometry" />
        </mxCell>
        <mxCell id="88q5nTp_Nvz3oITgZhuR-68" value="showEmptyListMessage()" style="html=1;align=left;spacingLeft=2;endArrow=block;rounded=0;edgeStyle=orthogonalEdgeStyle;curved=0;rounded=0;" parent="1" target="88q5nTp_Nvz3oITgZhuR-67" edge="1">
          <mxGeometry relative="1" as="geometry">
            <mxPoint x="405" y="804.5" as="sourcePoint" />
            <Array as="points">
              <mxPoint x="435" y="834.5" />
            </Array>
          </mxGeometry>
        </mxCell>
        <mxCell id="SBYqs1EQWeDO3xsNnUc4-3" value="" style="html=1;verticalAlign=bottom;endArrow=open;dashed=1;endSize=8;edgeStyle=elbowEdgeStyle;elbow=vertical;curved=0;rounded=0;" parent="1" source="aM9ryv3xv72pqoxQDRHE-6" edge="1">
          <mxGeometry x="0.0036" relative="1" as="geometry">
            <mxPoint x="450" y="421" as="targetPoint" />
            <Array as="points">
              <mxPoint x="540" y="421" />
            </Array>
            <mxPoint x="800.175" y="421" as="sourcePoint" />
            <mxPoint as="offset" />
          </mxGeometry>
        </mxCell>
        <mxCell id="SBYqs1EQWeDO3xsNnUc4-24" value="" style="group" parent="1" vertex="1" connectable="0">
          <mxGeometry x="400" y="1390" width="249.67" height="70" as="geometry" />
        </mxCell>
        <mxCell id="88q5nTp_Nvz3oITgZhuR-49" value="" style="html=1;verticalAlign=bottom;endArrow=block;edgeStyle=elbowEdgeStyle;elbow=vertical;curved=0;rounded=0;" parent="SBYqs1EQWeDO3xsNnUc4-24" edge="1">
          <mxGeometry relative="1" as="geometry">
            <mxPoint x="249.67" y="70" as="sourcePoint" />
            <Array as="points">
              <mxPoint x="74.67000000000006" y="70" />
              <mxPoint x="139.67" />
              <mxPoint x="200.67" />
            </Array>
            <mxPoint y="70" as="targetPoint" />
          </mxGeometry>
        </mxCell>
        <mxCell id="SBYqs1EQWeDO3xsNnUc4-25" value="refresh()" style="edgeLabel;html=1;align=center;verticalAlign=middle;resizable=0;points=[];" parent="88q5nTp_Nvz3oITgZhuR-49" vertex="1" connectable="0">
          <mxGeometry x="0.5398" relative="1" as="geometry">
            <mxPoint x="47" y="-10" as="offset" />
          </mxGeometry>
        </mxCell>
        <mxCell id="88q5nTp_Nvz3oITgZhuR-62" value="" style="html=1;points=[];perimeter=orthogonalPerimeter;outlineConnect=0;targetShapes=umlLifeline;portConstraint=eastwest;newEdgeStyle={&quot;edgeStyle&quot;:&quot;elbowEdgeStyle&quot;,&quot;elbow&quot;:&quot;vertical&quot;,&quot;curved&quot;:0,&quot;rounded&quot;:0};" parent="1" vertex="1">
          <mxGeometry x="400" y="610" width="10" height="40.5" as="geometry" />
        </mxCell>
      </root>
    </mxGraphModel>
  </diagram>
</mxfile>
